<svg width="16" height="15" viewBox="0 0 16 15" fill="none" xmlns="http://www.w3.org/2000/svg">
<g clip-path="url(#clip0_53_1880)">
<path d="M15.1656 7.60124C15.1524 3.6349 11.9264 0.430236 7.96001 0.443418C3.99367 0.456599 0.789006 3.68264 0.802188 7.64898C0.814101 11.2335 3.4502 14.1959 6.88532 14.7233L6.86864 9.7048L5.04516 9.71086L5.03826 7.6349L6.86174 7.62884L6.85648 6.04662C6.8505 4.24671 7.9194 3.24893 9.55983 3.24348C10.3453 3.24087 11.1679 3.37841 11.1679 3.37841L11.1738 5.14577L10.2682 5.14878C9.37611 5.15175 9.09966 5.70631 9.10155 6.27481L9.10602 7.62138L11.0978 7.61476L10.7863 9.69178L9.11292 9.69734L9.1296 14.7158C12.5611 14.1657 15.1775 11.1858 15.1656 7.60124Z" fill="#00171F"/>
</g>
<defs>
<clipPath id="clip0_53_1880">
<rect width="14.3635" height="14.3635" fill="white" transform="translate(0.77832 0.467285) rotate(-0.190416)"/>
</clipPath>
</defs>
</svg>
