<svg width="15" height="15" viewBox="0 0 15 15" fill="none" xmlns="http://www.w3.org/2000/svg">
<path d="M7.5688 1.48229C9.48766 1.47591 9.71492 1.48357 10.4697 1.51473C11.1711 1.54326 11.5502 1.65982 11.803 1.75717C12.1373 1.88511 12.3791 2.04141 12.6296 2.29025C12.8829 2.54189 13.038 2.77984 13.1682 3.11324C13.2672 3.3654 13.3863 3.74653 13.4195 4.44496C13.4556 5.2023 13.4648 5.4295 13.4712 7.34555C13.4775 9.26441 13.4699 9.49167 13.4387 10.2464C13.4102 10.9479 13.2936 11.327 13.1963 11.5798C13.0684 11.9141 12.9121 12.1558 12.6632 12.4063C12.4116 12.6597 12.1736 12.8147 11.8402 12.9449C11.5881 13.0439 11.2069 13.163 10.5085 13.1962C9.75116 13.2324 9.52396 13.2416 7.60791 13.2479C5.68905 13.2543 5.46179 13.2466 4.70704 13.2155C4.0056 13.187 3.62648 13.0704 3.37367 12.973C3.03941 12.8451 2.79763 12.6888 2.54712 12.44C2.2938 12.1883 2.13871 11.9504 2.00856 11.617C1.90953 11.3648 1.79044 10.9837 1.75726 10.2852C1.72108 9.52792 1.71191 9.30071 1.70554 7.38466C1.69916 5.4658 1.70682 5.23854 1.73798 4.48379C1.76651 3.78235 1.88307 3.40323 1.98042 3.15042C2.10836 2.81616 2.26465 2.57438 2.5135 2.32387C2.76514 2.07055 3.00308 1.91546 3.33649 1.78531C3.58865 1.68628 3.96978 1.56719 4.66821 1.53401C5.42274 1.49784 5.64994 1.48867 7.5688 1.48229ZM7.56451 0.189023C5.61479 0.195503 5.37075 0.20473 4.605 0.240939C3.84206 0.277139 3.31787 0.402318 2.86399 0.580566C2.3905 0.767294 1.99015 1.01269 1.59312 1.41518C1.19328 1.81487 0.950548 2.21685 0.766962 2.68876C0.591744 3.14662 0.470043 3.66883 0.438915 4.43199C0.407805 5.20077 0.4002 5.44487 0.40668 7.39458C0.41316 9.3443 0.422387 9.58834 0.458596 10.3541C0.494797 11.117 0.619975 11.6412 0.798223 12.0951C0.984951 12.5686 1.23035 12.9689 1.63284 13.366C2.03252 13.763 2.43451 14.0085 2.90641 14.1893C3.36427 14.3645 3.88648 14.4862 4.64964 14.5174C5.41562 14.5485 5.65971 14.5561 7.60943 14.5496C9.55914 14.5431 9.80318 14.5339 10.5689 14.4977C11.3319 14.4615 11.8561 14.3363 12.3099 14.1581C12.7806 13.9742 13.181 13.726 13.578 13.3263C13.975 12.9266 14.2206 12.5246 14.4014 12.0527C14.5766 11.5948 14.6983 11.0726 14.7294 10.3095C14.7605 9.54349 14.7681 9.2994 14.7617 7.34968C14.7552 5.39996 14.746 5.15593 14.7097 4.39018C14.6735 3.62724 14.5484 3.10305 14.3701 2.64917C14.1918 2.17284 13.9464 1.77249 13.5439 1.37546C13.1442 0.978429 12.7422 0.732891 12.2703 0.55211C11.8125 0.376893 11.2903 0.255191 10.5271 0.224063C9.75832 0.190148 9.51422 0.182543 7.56451 0.189023Z" fill="#00171F"/>
<path d="M7.57575 3.68159C5.53907 3.68836 3.89221 5.3462 3.89898 7.38288C3.90575 9.41956 5.56359 11.0664 7.60027 11.0597C9.63696 11.0529 11.2838 9.39504 11.277 7.35836C11.2703 5.32168 9.61244 3.67482 7.57575 3.68159ZM7.59597 9.76358C6.27465 9.76797 5.19944 8.69989 5.19505 7.37857C5.19066 6.05725 6.25874 4.98205 7.58006 4.97766C8.90138 4.97327 9.97658 6.04135 9.98097 7.36267C9.98537 8.68399 8.91728 9.75919 7.59597 9.76358Z" fill="#00171F"/>
<path d="M12.2722 3.52007C12.2738 3.99698 11.8879 4.3826 11.4138 4.38417C10.9369 4.38576 10.5513 3.9999 10.5497 3.52579C10.5482 3.04888 10.934 2.66326 11.4081 2.66169C11.8822 2.66011 12.2706 3.04596 12.2722 3.52007Z" fill="#00171F"/>
</svg>
