<svg width="70" height="25" viewBox="0 0 70 25" fill="none" xmlns="http://www.w3.org/2000/svg">
<g clip-path="url(#clip0_53_1649)">
<path d="M20.1828 20.1301C20.5671 20.1308 20.8851 20.2615 21.1398 20.5191C21.4008 20.7767 21.5262 21.0975 21.5255 21.4784C21.5248 21.8593 21.3983 22.1734 21.1363 22.4364C20.8807 22.693 20.5623 22.8226 20.178 22.8219L19.3495 22.8204L19.347 24.2235L18.6792 24.2223L18.6865 20.1306L20.1828 20.1333L20.1828 20.1301ZM20.1791 22.1871C20.5729 22.1878 20.857 21.8899 20.8577 21.4741C20.8584 21.0582 20.5755 20.7593 20.1817 20.7586L19.3532 20.7571L19.3507 22.1824L20.1792 22.1839L20.1791 22.1871Z" fill="#103559"/>
<path d="M22.5282 23.0577C22.624 23.4679 23 23.6941 23.5095 23.695C23.8592 23.6956 24.1225 23.5819 24.3027 23.3626L24.8484 23.6447C24.5479 24.0366 24.098 24.232 23.5052 24.2309C23.009 24.2301 22.6029 24.0946 22.297 23.8305C21.9911 23.5605 21.8385 23.2205 21.8393 22.8105C21.84 22.4005 21.9938 22.0728 22.294 21.8039C22.5942 21.5291 22.9874 21.3951 23.4603 21.396C23.9066 21.3968 24.276 21.538 24.5619 21.8138C24.8511 22.0896 24.9971 22.4296 24.9964 22.822C24.9963 22.8806 24.9894 22.9626 24.9726 23.065L22.5315 23.0607L22.5282 23.0577ZM24.3274 22.5865C24.2349 22.15 23.8857 21.9209 23.4527 21.9202C22.9632 21.9193 22.6197 22.1735 22.5257 22.5833L24.3274 22.5865Z" fill="#103559"/>
<path d="M26.8917 21.8863L26.1671 21.885L26.1645 23.292C26.1639 23.6676 26.4086 23.6617 26.8886 23.6402L26.8876 24.21C25.9211 24.3261 25.5307 24.0612 25.5321 23.294L25.5346 21.887L24.9974 21.8861L24.9985 21.2749L25.5357 21.2758L25.5368 20.6424L26.1696 20.4557L26.1681 21.277L26.8928 21.2783L26.8917 21.8895L26.8917 21.8863Z" fill="#103559"/>
<path d="M28.4476 22.5687C28.8744 22.6603 29.4273 22.8343 29.4142 23.4118C29.4137 23.6698 29.3081 23.8748 29.1034 24.021C28.8987 24.1672 28.6431 24.2401 28.3334 24.2395C27.7862 24.2385 27.3807 24.0003 27.2041 23.6072L27.7187 23.3179C27.8114 23.576 28.0156 23.7083 28.3313 23.7089C28.647 23.7094 28.8035 23.6071 28.8039 23.4078C28.8042 23.2348 28.5729 23.1318 28.2784 23.0609C27.8637 22.9575 27.3047 22.7953 27.3178 22.2266C27.3182 21.9774 27.4118 21.7782 27.6075 21.629C27.8002 21.4769 28.0468 21.4041 28.3324 21.4046C28.7924 21.4054 29.1619 21.6172 29.3566 21.9693L28.8511 22.244C28.7582 22.0386 28.581 21.9357 28.3315 21.9352C28.106 21.9348 27.9284 22.0312 27.9281 22.2218C27.9278 22.4006 28.1591 22.4919 28.4476 22.5745L28.4476 22.5687Z" fill="#103559"/>
<path d="M33.2076 20.7554C32.7103 20.714 32.4681 20.9036 32.4673 21.3211L32.4672 21.3772L33.2065 21.3786L33.2055 21.9768L32.4661 21.9754L32.4621 24.2468L31.7841 24.2456L31.7882 21.9742L31.3112 21.9734L31.3123 21.3752L31.7892 21.376L31.7893 21.3199C31.7907 20.5348 32.2821 20.1057 33.2087 20.1572L33.2076 20.7554Z" fill="#103559"/>
<path d="M33.9794 23.8395C33.6745 23.5637 33.5192 23.2296 33.5199 22.8313C33.5206 22.433 33.6771 22.0994 33.983 21.8246C34.2888 21.5499 34.6658 21.4159 35.101 21.4166C35.5363 21.4174 35.9128 21.5528 36.2176 21.8286C36.5224 22.1045 36.6777 22.4386 36.677 22.8369C36.6763 23.2352 36.5198 23.5688 36.214 23.8435C35.9082 24.1183 35.5377 24.2523 35.0959 24.2515C34.6542 24.2507 34.2842 24.1154 33.9794 23.8395ZM35.097 23.6863C35.36 23.6868 35.5811 23.6052 35.76 23.4444C35.9389 23.2837 36.0302 23.0788 36.0307 22.8357C36.0311 22.5927 35.9405 22.3875 35.7622 22.2261C35.5838 22.0647 35.3631 21.9823 35.1 21.9819C34.8369 21.9814 34.6159 22.063 34.437 22.2237C34.258 22.3845 34.1667 22.5893 34.1663 22.8324C34.1659 23.0755 34.2564 23.2807 34.4348 23.442C34.6131 23.6034 34.8339 23.6858 35.097 23.6863Z" fill="#103559"/>
<path d="M37.6446 21.9387C37.8086 21.5941 38.1227 21.4222 38.5737 21.423L38.5725 22.0735C38.3274 22.0549 38.1083 22.112 37.9218 22.2387C37.7353 22.3624 37.6434 22.568 37.6429 22.8524L37.6404 24.2562L36.9901 24.2551L36.995 21.4686L37.6454 21.4697L37.6446 21.9387Z" fill="#103559"/>
<path d="M43.3069 23.0971C43.3063 23.4307 43.1938 23.71 42.9665 23.932C42.7391 24.154 42.4636 24.2647 42.1368 24.2641L40.4634 24.2611L40.4707 20.1663L42.02 20.169C42.3377 20.1696 42.6099 20.2813 42.8274 20.4977C43.0509 20.7141 43.1593 20.9843 43.1588 21.3052C43.1581 21.661 43.0245 21.9371 42.7609 22.1399C43.0994 22.328 43.3046 22.6683 43.3038 23.0939L43.3069 23.0971ZM41.1111 20.7996L41.1092 21.8765L42.0169 21.8781C42.3014 21.8786 42.5197 21.6439 42.5202 21.3421C42.5208 21.0404 42.3033 20.8049 42.0189 20.8044L41.1111 20.8028L41.1111 20.7996ZM42.1379 23.6319C42.4344 23.6324 42.6679 23.3819 42.6684 23.061C42.669 22.7402 42.4365 22.4888 42.1399 22.4883L41.1081 22.4864L41.106 23.6332L42.1379 23.6351L42.1379 23.6319Z" fill="#103559"/>
<path d="M44.6271 23.0971C44.7228 23.5072 45.0983 23.7334 45.6073 23.7343C45.9566 23.7349 46.2197 23.6212 46.3997 23.4019L46.9448 23.684C46.6447 24.0759 46.1952 24.2713 45.6031 24.2702C45.1074 24.2694 44.7017 24.1339 44.3961 23.8698C44.0906 23.5998 43.9381 23.2598 43.9389 22.8498C43.9396 22.4398 44.0932 22.1121 44.3931 21.8432C44.693 21.5684 45.0858 21.4344 45.5582 21.4353C46.004 21.4361 46.373 21.5773 46.662 21.8531C46.9509 22.1289 47.0967 22.4689 47.096 22.8613C47.0959 22.9199 47.0891 23.0019 47.0722 23.1043L44.6337 23.1L44.6271 23.0971ZM46.4244 22.6258C46.332 22.1893 45.9831 21.9602 45.5506 21.9595C45.0616 21.9586 44.7185 22.2128 44.6246 22.6226L46.4277 22.6258L46.4244 22.6258Z" fill="#103559"/>
<path d="M48.3382 22.6043C48.765 22.696 49.3179 22.8699 49.3048 23.4474C49.3044 23.7054 49.1988 23.9104 48.9941 24.0566C48.7894 24.2029 48.5337 24.2757 48.224 24.2751C47.6768 24.2742 47.2714 24.036 47.0947 23.6428L47.6093 23.3535C47.7021 23.6117 47.9063 23.7439 48.222 23.7445C48.5376 23.7451 48.6942 23.6427 48.6945 23.4434C48.6948 23.2704 48.4635 23.1674 48.169 23.0965C47.7543 22.9932 47.1954 22.8309 47.2084 22.2622C47.2088 22.013 47.3024 21.8138 47.4981 21.6647C47.6908 21.5126 47.9374 21.4397 48.2231 21.4402C48.6831 21.4411 49.0525 21.6528 49.2473 22.0049L48.7417 22.2796C48.6489 22.0742 48.4717 21.9713 48.2221 21.9709C47.9966 21.9705 47.8191 22.0669 47.8187 22.2574C47.8184 22.4363 48.0497 22.5276 48.3382 22.6102L48.3382 22.6043Z" fill="#103559"/>
<path d="M51.5177 21.9302L50.7942 21.9289L50.7917 23.3359C50.7911 23.7115 51.0354 23.7056 51.5145 23.6842L51.5135 24.254C50.5487 24.37 50.1589 24.1051 50.1603 23.338L50.1628 21.931L49.6234 21.93L49.6245 21.3188L50.1639 21.3198L50.165 20.6863L50.7968 20.4997L50.7953 21.3209L51.5188 21.3222L51.5177 21.9334L51.5177 21.9302Z" fill="#103559"/>
<path d="M15.677 2.51683C15.5958 1.702 15.2688 1.53722 14.6332 1.53609L11.9257 1.53125C11.3314 1.53019 11.1882 1.63098 10.9614 2.28421L8.91895 8.88328L6.90009 2.27695C6.67563 1.62291 6.53281 1.52161 5.93855 1.52055L3.22782 1.51571C2.59225 1.51457 2.26464 1.67818 2.18056 2.49272L0.720998 15.4524C0.659784 15.9196 0.700763 16.106 1.1106 16.1667L4.20822 16.6207C4.67844 16.6815 4.78349 16.5806 4.84449 16.2334L5.53223 10.1624L6.97753 15.852C7.1197 16.3196 7.30368 16.5062 7.77718 16.5071L10.0335 16.5111C10.5038 16.5119 10.6916 16.3291 10.8355 15.8589L12.282 10.1745L12.9671 16.2479C13.0269 16.5954 13.1316 16.6966 13.602 16.6375L16.7012 16.1946C17.1113 16.1353 17.1529 15.9523 17.0934 15.4817L15.677 2.51683Z" fill="#103559"/>
<path d="M23.1327 5.01594C19.6554 5.00972 17.7614 7.3897 17.7555 10.6761C17.7496 13.9626 19.6352 16.3493 23.1124 16.3555C26.5897 16.3617 28.4838 13.9817 28.4896 10.6953C28.4955 7.40888 26.61 5.02215 23.1327 5.01594ZM23.1191 12.647C22.2844 12.6455 21.8385 11.8627 21.8406 10.6803C21.8428 9.49796 22.2914 8.71672 23.1261 8.71821C23.9608 8.7197 24.4066 9.50254 24.4045 10.6849C24.4024 11.8673 23.9537 12.6485 23.1191 12.647Z" fill="#103559"/>
<path d="M36.2979 5.0458C35.5851 5.04453 30.2513 5.17663 29.9035 5.66383C29.7613 5.82723 29.7609 6.05069 29.7602 6.43465L29.9084 15.2913C29.9258 16.1033 30.1115 16.3681 30.8211 16.3693L33.3065 16.3738C34.0193 16.375 34.2217 16.111 34.2231 15.299L34.234 9.18392C34.5402 9.08375 34.6412 9.04302 34.9882 9.02161C35.455 9.00356 35.6787 9.14558 35.8231 9.52981C35.9233 9.93598 35.9443 10.5466 35.9428 11.3775L35.9169 15.2989C35.9154 16.1109 36.1389 16.3757 36.8517 16.3769L39.397 16.3815C40.1098 16.3828 40.2932 16.1187 40.3136 15.3068L40.4873 9.90322C40.5086 8.58141 40.2269 7.36292 39.5567 6.4679C38.8454 5.5728 37.7866 5.04217 36.3011 5.03952L36.2979 5.0458Z" fill="#103559"/>
<path d="M45.8494 6.31648L43.291 6.31191C42.591 6.31066 42.3892 6.55171 42.3878 7.36372L42.3736 15.3177C42.3721 16.1266 42.573 16.3903 43.273 16.3915L45.8717 16.3962C46.5717 16.3974 46.7921 16.1345 46.7935 15.3256L46.7674 7.37155C46.7689 6.58148 46.5494 6.31774 45.8494 6.31648Z" fill="#103559"/>
<path d="M44.7663 0.959797C43.251 0.95709 42.3968 1.88865 42.3945 3.16048C42.3922 4.43231 43.2431 5.36692 44.7584 5.36963C46.2737 5.37233 47.1279 4.44077 47.1302 3.16894C47.1324 1.89711 46.2815 0.962505 44.7663 0.959797Z" fill="#103559"/>
<path d="M55.7452 5.40427L54.1714 5.40146L54.1763 2.66305C54.1778 1.85191 53.9699 1.6063 53.2487 1.60501L50.8064 1.60065C50.082 1.59936 49.854 1.86304 49.8525 2.65533L49.8476 5.39374L48.6072 5.39152C47.9245 5.3903 47.7576 5.51262 47.7565 6.14141L47.7526 8.35478C47.7514 8.98357 47.9179 9.10649 48.6006 9.10771L49.841 9.10992L49.8341 12.9644C49.8295 15.5614 51.212 16.7208 53.8211 16.7255C54.5871 16.7269 55.3532 16.6685 56.0779 16.5252C56.3889 16.466 56.4724 16.3844 56.4729 16.0794L56.3759 12.973C56.3764 12.7089 56.2323 12.608 55.963 12.6673C55.7353 12.7266 55.5077 12.7671 55.1968 12.7665C54.5974 12.7655 54.1618 12.5603 54.1634 11.6894L54.168 9.11137L55.7417 9.11418C56.4245 9.1154 56.5913 8.99308 56.5925 8.36429L56.5964 6.15092C56.5975 5.52212 56.4311 5.39921 55.7484 5.39799L55.7452 5.40427Z" fill="#103559"/>
<path d="M62.5966 5.08649C59.1193 5.08028 57.2252 7.46026 57.2194 10.7467C57.2135 14.0331 59.099 16.4198 62.5763 16.4261C66.0536 16.4323 67.9476 14.0523 67.9535 10.7659C67.9594 7.47944 66.0738 5.09271 62.5966 5.08649ZM62.5829 12.7176C61.7483 12.7161 61.3024 11.9332 61.3045 10.7509C61.3066 9.56851 61.7553 8.78727 62.59 8.78876C63.4246 8.79026 63.8705 9.57309 63.8684 10.7555C63.8663 11.9378 63.4176 12.7191 62.5829 12.7176Z" fill="#103559"/>
<path d="M68.9614 5.54192C68.597 5.27809 67.9992 5.42908 67.6211 5.87874C67.2429 6.3284 67.2324 6.90738 67.5936 7.17121C67.9579 7.43504 68.5557 7.28405 68.9339 6.83439C69.3121 6.38473 69.3225 5.80575 68.9614 5.54192Z" fill="#103559"/>
<path d="M60.3775 4.76109C60.8065 4.696 61.0884 4.15403 61.0067 3.5487C60.9249 2.94337 60.5147 2.50364 60.0857 2.56872C59.6568 2.6338 59.3749 3.17577 59.4566 3.78111C59.5384 4.38644 59.9486 4.82617 60.3775 4.76109Z" fill="#103559"/>
<path d="M65.9325 5.32737C66.5252 5.6279 67.4243 5.06311 67.9374 4.0647C68.4505 3.06629 68.3868 2.01152 67.7908 1.71098C67.1981 1.41045 66.299 1.97524 65.7859 2.97365C65.2728 3.97205 65.3365 5.02683 65.9325 5.32737Z" fill="#103559"/>
<path d="M62.8632 4.45188C63.461 4.52904 64.0425 3.74698 64.1598 2.70729C64.2771 1.66443 63.888 0.760156 63.2873 0.682992C62.6895 0.605833 62.108 1.38789 61.9907 2.42759C61.8734 3.47045 62.2625 4.37472 62.8632 4.45188Z" fill="#103559"/>
</g>
<defs>
<clipPath id="clip0_53_1649">
<rect width="68.8249" height="23.9391" fill="white" transform="translate(0.725586 0.566162) rotate(0.102381)"/>
</clipPath>
</defs>
</svg>
