<svg width="13" height="13" viewBox="0 0 13 13" fill="none" xmlns="http://www.w3.org/2000/svg">
<path d="M11.034 10.4706L9.18704 8.63196C9.90686 7.73772 10.2567 6.60168 10.1646 5.45743C10.0726 4.31317 9.5456 3.24768 8.69207 2.48003C7.83854 1.71238 6.72334 1.30093 5.57576 1.33028C4.42818 1.35963 3.33546 1.82755 2.52229 2.63783C1.70911 3.4481 1.23729 4.53914 1.20384 5.6866C1.17039 6.83407 1.57785 7.95074 2.34244 8.80701C3.10703 9.66328 4.17064 10.1941 5.31456 10.2902C6.45848 10.3864 7.59576 10.0406 8.49256 9.32395L10.3246 11.1626C10.3709 11.2094 10.426 11.2466 10.4867 11.272C10.5474 11.2974 10.6126 11.3106 10.6784 11.3107C10.7443 11.3108 10.8095 11.2979 10.8703 11.2727C10.9311 11.2475 10.9864 11.2105 11.0328 11.1638C11.1229 11.071 11.1733 10.9468 11.1736 10.8175C11.1738 10.6881 11.1238 10.5637 11.034 10.4706ZM5.69468 9.31895C5.00421 9.31772 4.3296 9.11176 3.75617 8.72713C3.18275 8.34249 2.73626 7.79646 2.47316 7.15807C2.21007 6.51968 2.14219 5.81761 2.2781 5.14064C2.41402 4.46367 2.74763 3.84221 3.23674 3.35484C3.72585 2.86747 4.34851 2.53608 5.02596 2.40259C5.70341 2.26909 6.40523 2.33948 7.04268 2.60486C7.68012 2.87023 8.22456 3.31867 8.60714 3.89347C8.98973 4.46826 9.19327 5.1436 9.19204 5.83408C9.19038 6.75998 8.82098 7.6473 8.1651 8.30084C7.50922 8.95438 6.62058 9.32061 5.69468 9.31895Z" fill="#667479"/>
</svg>
