<svg width="15" height="13" viewBox="0 0 15 13" fill="none" xmlns="http://www.w3.org/2000/svg">
<path d="M4.6433 12.3417C10.0621 12.3237 13.0119 7.82332 12.9989 3.93033C12.9985 3.80409 12.9953 3.67506 12.9893 3.54883C13.5646 3.12984 14.0606 2.61158 14.4539 2.0184C13.9176 2.25916 13.3478 2.41712 12.7641 2.4869C13.3777 2.1163 13.8362 1.53579 14.0545 0.85297C13.4772 1.19769 12.8454 1.44161 12.1862 1.57427C11.7403 1.10352 11.1516 0.792804 10.5113 0.690159C9.871 0.587514 9.21472 0.698657 8.64393 1.00641C8.07313 1.31415 7.61961 1.80137 7.35349 2.39272C7.08736 2.98406 7.02345 3.64661 7.17164 4.27793C6.00021 4.22305 4.85338 3.9226 3.80552 3.39606C2.75765 2.86953 1.83213 2.12866 1.08896 1.22148C0.71493 1.87132 0.602368 2.63918 0.774148 3.36903C0.945929 4.09887 1.38916 4.73592 2.01376 5.15071C1.54584 5.13741 1.0878 5.01296 0.677477 4.78765L0.677598 4.82412C0.679441 5.50476 0.916938 6.16375 1.34972 6.68909C1.7825 7.21442 2.38385 7.57367 3.05155 7.70577C2.61853 7.82579 2.1637 7.84458 1.72226 7.76068C1.91249 8.34541 2.28053 8.85616 2.77501 9.22165C3.2695 9.58714 3.86575 9.78913 4.48055 9.79944C3.43959 10.6227 2.1518 11.0717 0.824611 11.074C0.589245 11.0744 0.354063 11.0608 0.120325 11.0332C1.47148 11.8937 3.04141 12.3479 4.6433 12.3417Z" fill="#00171F"/>
</svg>
