<svg width="16" height="11" viewBox="0 0 16 11" fill="none" xmlns="http://www.w3.org/2000/svg">
<path d="M14.9199 2.34734C14.9199 2.34734 14.7764 1.35752 14.3429 0.924125C13.794 0.353652 13.1824 0.352879 12.9017 0.320147C10.8926 0.180944 7.87688 0.190967 7.87688 0.190967L7.87127 0.190985C7.87127 0.190985 4.85552 0.201008 2.84738 0.353561C2.56695 0.388158 1.9554 0.392996 1.41025 0.967105C0.979676 1.40337 0.845505 2.39411 0.845505 2.39411C0.845505 2.39411 0.703496 3.55882 0.707356 4.72023L0.710973 5.80871C0.714833 6.97012 0.861775 8.13387 0.861775 8.13387C0.861775 8.13387 1.00533 9.12369 1.436 9.55709C1.98494 10.1276 2.70305 10.1055 3.02306 10.1662C4.17362 10.2718 7.90765 10.293 7.90765 10.293C7.90765 10.293 10.9262 10.2774 12.9343 10.1276C13.2148 10.093 13.8263 10.0882 14.3715 9.5141C14.802 9.07784 14.939 8.08708 14.939 8.08708C14.939 8.08708 15.0782 6.92519 15.0744 5.76097L15.0707 4.6725C15.0669 3.51108 14.9199 2.34734 14.9199 2.34734ZM6.41303 7.11109L6.39961 3.0742L10.2861 5.08676L6.41303 7.11109Z" fill="#00171F"/>
</svg>
